<?xml version="1.0" encoding="UTF-8" standalone="no"?>
<!-- Created with Inkscape (http://www.inkscape.org/) -->
<svg
   xmlns:dc="http://purl.org/dc/elements/1.1/"
   xmlns:cc="http://creativecommons.org/ns#"
   xmlns:rdf="http://www.w3.org/1999/02/22-rdf-syntax-ns#"
   xmlns:svg="http://www.w3.org/2000/svg"
   xmlns="http://www.w3.org/2000/svg"
   xmlns:sodipodi="http://sodipodi.sourceforge.net/DTD/sodipodi-0.dtd"
   xmlns:inkscape="http://www.inkscape.org/namespaces/inkscape"
   width="640px"
   height="480px"
   id="svg2451"
   sodipodi:version="0.32"
   inkscape:version="0.46"
   inkscape:export-filename="/home/dunk/samurai2.png"
   inkscape:export-xdpi="90"
   inkscape:export-ydpi="90"
   sodipodi:docname="samuraix.svg"
   inkscape:output_extension="org.inkscape.output.svg.inkscape">
  <defs
     id="defs2453">
    <inkscape:perspective
       sodipodi:type="inkscape:persp3d"
       inkscape:vp_x="0 : 240 : 1"
       inkscape:vp_y="0 : 1000 : 0"
       inkscape:vp_z="640 : 240 : 1"
       inkscape:persp3d-origin="320 : 160 : 1"
       id="perspective2459" />
    <filter
       id="filter2412"
       inkscape:label="filter1">
      <feGaussianBlur
         stdDeviation="1"
         id="feGaussianBlur2414" />
    </filter>
  </defs>
  <sodipodi:namedview
     id="base"
     pagecolor="#ffffff"
     bordercolor="#666666"
     borderopacity="1.0"
     inkscape:pageopacity="1"
     inkscape:pageshadow="2"
     inkscape:zoom="1.4142136"
     inkscape:cx="359.79816"
     inkscape:cy="223.62574"
     inkscape:current-layer="layer1"
     inkscape:document-units="px"
     showgrid="false"
     inkscape:window-width="638"
     inkscape:window-height="783"
     inkscape:window-x="0"
     inkscape:window-y="15" />
  <metadata
     id="metadata2456">
    <rdf:RDF>
      <cc:Work
         rdf:about="">
        <dc:format>image/svg+xml</dc:format>
        <dc:type
           rdf:resource="http://purl.org/dc/dcmitype/StillImage" />
      </cc:Work>
    </rdf:RDF>
  </metadata>
  <g
     id="layer1"
     inkscape:label="Layer 1"
     inkscape:groupmode="layer">
    <path
       style="font-size:242.0352478px;font-style:normal;font-variant:normal;font-weight:normal;font-stretch:normal;fill:#800000;fill-opacity:1;stroke:none;stroke-width:1px;stroke-linecap:butt;stroke-linejoin:miter;stroke-opacity:1;font-family:Shoguns Clan;-inkscape-font-specification:Shoguns Clan"
       d="M 406.03706,150.00496 L 407.10069,150.00496 L 408.04615,151.06859 C 408.04613,151.54148 407.37644,152.0536 406.03706,152.60495 L 404.50071,152.01404 C 403.00373,154.77177 401.62495,156.15055 400.36436,156.15038 L 399.41891,158.75037 C 400.12799,160.72022 401.82192,162.92627 404.50071,165.36852 L 410.17341,161.82309 L 411.11886,162.76854 L 404.97343,166.31397 L 404.97343,167.37761 C 408.75522,168.63836 410.64611,170.8444 410.64613,173.99576 C 411.59156,173.9959 412.45822,175.72922 413.24612,179.19573 C 417.81577,181.08677 420.69151,182.93828 421.87335,184.75025 L 421.87335,189.35932 C 429.75207,191.88065 433.69144,195.82002 433.69148,201.17745 C 433.69144,202.35938 435.38537,203.54119 438.77328,204.72289 L 439.246,205.19561 L 439.246,206.25924 C 438.69444,207.59874 437.51263,208.26844 435.70056,208.26833 L 435.70056,208.85923 L 443.38235,213.94103 L 445.39143,212.40467 L 446.92778,212.40467 C 448.58226,215.00476 452.00952,217.05324 457.20955,218.5501 C 458.54888,221.15018 459.88826,222.84411 461.22772,223.63189 L 461.81862,223.63189 C 464.49733,222.84411 466.70338,219.7714 468.43678,214.41375 C 470.24881,209.68661 472.61243,207.32299 475.52765,207.32288 C 475.52757,206.06239 477.57604,204.01391 481.67308,201.17745 L 487.8185,201.17745 L 487.8185,197.51383 C 486.79417,196.33214 486.28205,195.15033 486.28215,193.96839 C 486.28205,192.07762 488.33053,190.02914 492.42757,187.82297 L 498.573,179.19573 C 498.57289,177.1474 503.69408,173.56257 513.93657,168.44124 L 522.68198,163.24126 C 527.01516,163.55657 529.53636,164.06868 530.24558,164.77762 L 531.78194,162.76854 L 532.37284,163.24126 L 532.84557,162.76854 L 533.9092,162.76854 L 533.9092,163.24126 C 533.90906,163.9505 533.19997,164.30505 531.78194,164.30489 L 531.30921,164.77762 L 531.30921,165.84125 L 536.98191,166.90488 L 537.92736,165.84125 L 538.51827,165.84125 L 540.05463,166.90488 L 541.00008,166.90488 C 541.7878,166.82624 543.83628,164.93535 547.1455,161.23218 C 549.74533,161.23234 551.47866,160.72022 552.34548,159.69582 L 552.8182,160.28673 L 552.8182,160.75945 C 552.81804,161.4687 551.95138,161.82324 550.21822,161.82309 C 550.21806,162.76869 548.01201,164.10808 543.60007,165.84125 L 528.2365,181.67754 L 524.69106,189.35932 C 519.33338,190.06854 514.05462,191.95944 508.85477,195.03202 C 508.85465,199.12909 508.50011,201.17757 507.79114,201.17745 L 508.26386,203.18653 L 513.46384,201.65017 L 513.93657,201.65017 C 513.46372,202.59574 510.90313,203.97452 506.25478,205.78652 L 505.78206,207.32288 L 507.31841,211.93195 L 507.79114,211.93195 L 508.85477,210.86831 L 508.26386,208.85923 C 512.67584,207.20481 516.26067,204.95936 519.01836,202.1229 L 519.60927,202.71381 L 519.60927,203.18653 C 517.3243,205.78663 514.25159,208.18965 510.39113,210.39559 L 510.39113,213.4683 L 511.33658,214.41375 L 511.92748,214.41375 C 514.76371,214.41386 516.81218,213.90174 518.07291,212.8774 L 519.01836,212.8774 C 520.43641,212.8775 522.32731,213.90174 524.69106,215.95011 L 529.77286,218.5501 L 530.24558,217.95919 L 530.83649,217.95919 L 531.78194,219.49555 L 530.83649,220.55918 C 527.52728,220.55928 525.12426,219.53504 523.62743,217.48647 C 521.26367,217.48657 520.08186,216.81687 520.08199,215.47738 L 515.94565,215.95011 C 513.03039,215.95021 510.31222,215.28052 507.79114,213.94103 C 507.79102,215.28052 506.92436,215.95021 505.19115,215.95011 L 504.71843,213.94103 L 502.11844,213.94103 L 504.71843,220.08645 C 503.93044,220.08655 503.41832,219.21989 503.18207,217.48647 L 502.70935,217.95919 L 502.11844,217.95919 C 501.09409,216.77748 500.58197,215.43809 500.58208,213.94103 L 498.573,213.94103 L 498.573,215.95011 L 498.10028,215.95011 L 496.56392,214.88648 L 496.09119,216.42283 L 493.01848,214.41375 L 492.42757,214.41375 C 490.93051,214.88658 487.34568,218.31383 481.67308,224.69552 L 468.9095,227.76824 L 467.37314,228.24096 L 467.37314,228.71369 C 470.13063,230.36831 471.50941,232.10164 471.50949,233.91366 C 472.8488,233.91375 473.51849,234.2289 473.51857,234.85911 L 473.04585,240.53181 C 478.79725,243.44703 481.67299,245.29853 481.67308,246.08633 L 486.28215,251.28631 L 486.28215,253.76812 C 488.01538,253.76818 488.88204,256.01362 488.88214,260.50445 C 493.68807,262.86813 496.09109,267.94992 496.09119,275.74983 L 498.10028,281.42253 C 498.10017,282.13166 497.58805,282.4862 496.56392,282.48617 C 497.9032,284.69225 499.59713,286.54375 501.64571,288.04069 C 501.6456,290.95585 504.20619,296.58915 509.3275,304.94061 L 510.39113,306.94969 L 510.39113,307.5406 L 509.3275,307.5406 C 510.35161,308.56484 510.86373,310.77089 510.86385,314.15875 C 511.80918,314.15875 514.36977,316.87692 518.54564,322.31325 C 520.04247,322.31325 522.24852,324.5193 525.16379,328.93141 L 525.16379,329.99504 L 524.21834,329.99504 C 523.50912,329.99503 523.15457,329.28594 523.15471,327.86777 L 516.53655,324.79506 C 511.7304,319.67387 506.76679,315.26178 501.64571,311.55876 C 501.6456,308.87999 499.28198,306.3194 494.55484,303.87698 C 494.55473,302.93154 491.79717,300.88307 486.28215,297.73155 C 485.49418,297.02248 484.66691,294.65886 483.80034,290.64067 L 484.27307,289.10432 C 481.51541,286.97709 477.26089,285.08619 471.50949,283.43162 C 471.50941,282.88014 469.30336,281.69833 464.89134,279.88618 C 464.18218,278.31047 461.62159,274.88321 457.20955,269.60441 C 456.02768,267.00447 454.13678,264.64085 451.53685,262.51353 C 448.14893,256.1318 444.91865,251.68031 441.84599,249.15905 C 436.72476,256.32877 431.446,259.9136 426.0097,259.91354 C 426.00966,261.72571 423.60665,263.61661 418.80064,265.58624 C 418.80061,269.28931 416.24002,272.51959 411.11886,275.27711 L 411.70976,277.28619 C 411.00066,279.3347 409.62188,280.35894 407.57342,280.3589 L 406.03706,280.3589 C 406.03705,281.46196 404.50069,282.32863 401.42799,282.95889 C 401.42798,284.69225 400.24617,285.55891 397.88256,285.55888 C 394.02196,290.60131 389.92502,293.12251 385.5917,293.12248 C 385.43413,293.83159 382.55839,295.56492 376.96447,298.32246 L 365.14634,306.47696 L 364.67362,306.47696 L 364.67362,306.00424 C 367.50999,302.69518 372.94633,298.75581 380.98263,294.18611 C 382.40082,293.39826 384.80383,291.03464 388.19169,287.09524 C 391.02804,287.09527 394.4159,284.69225 398.35528,279.88618 C 399.4583,279.88622 400.83708,278.19229 402.49163,274.80438 C 407.92795,269.84082 413.71882,266.09841 419.86427,263.57716 C 419.86424,260.11057 421.71575,256.84089 425.41879,253.76812 L 433.10058,247.14997 C 433.80962,245.57429 434.51871,244.70763 435.22784,244.54998 C 435.22779,243.21066 431.28842,239.8228 423.40971,234.38639 C 419.31273,231.39255 417.26426,228.98953 417.26428,227.17733 C 416.79153,227.17742 416.12184,225.83803 415.2552,223.15917 C 411.47338,222.68654 407.73098,218.74717 404.02798,211.34104 C 400.16738,208.26844 397.40982,206.73208 395.75529,206.73197 L 395.28257,206.73197 L 395.28257,207.32288 L 397.29165,210.39559 L 397.29165,211.93195 C 396.26741,211.93205 395.75529,212.75932 395.75529,214.41375 L 396.81892,215.47738 L 396.81892,217.01374 L 395.75529,217.95919 L 394.80984,217.95919 C 393.70681,217.95929 393.03712,216.26536 392.80076,212.8774 C 393.66742,212.79871 394.33711,211.97145 394.80984,210.39559 C 394.02196,210.3957 393.35227,208.66237 392.80076,205.19561 L 391.2644,206.25924 C 390.55532,206.25936 390.20077,205.74724 390.20077,204.72289 L 389.72805,204.72289 L 389.25532,205.19561 L 388.66442,205.19561 C 388.66442,205.82603 389.68866,206.69269 391.73713,207.7956 L 391.73713,208.26833 L 390.79168,209.33196 C 387.32503,207.59874 385.59171,205.70784 385.5917,203.65926 L 386.18261,203.18653 C 382.08567,202.8715 380.03719,201.49272 380.03718,199.05019 L 379.44628,199.05019 L 378.0281,200.11382 L 376.96447,200.11382 L 375.90084,199.05019 L 375.90084,198.57746 C 377.4766,198.57758 379.52508,197.04123 382.04626,193.96839 C 381.02204,192.94428 374.56147,189.71399 362.66454,184.27753 L 362.66454,183.8048 C 362.66456,183.01706 363.49183,182.50494 365.14634,182.26845 C 373.81299,188.33521 378.93417,191.36853 380.50991,191.3684 L 380.98263,190.89568 L 380.98263,190.42295 L 380.03718,190.42295 L 380.03718,189.35932 L 380.50991,188.8866 L 380.50991,188.41387 C 375.78267,186.99583 373.41905,185.97159 373.41903,185.34116 L 373.89176,184.75025 L 382.51899,187.35024 L 382.51899,186.28661 L 374.95539,179.66846 L 375.90084,179.66846 L 386.65533,186.87752 L 387.71897,185.81388 L 389.25532,185.81388 L 389.25532,186.87752 C 387.99473,186.87765 387.12806,187.86249 386.65533,189.83205 L 385.5917,189.83205 L 385.5917,190.89568 L 386.65533,191.95931 L 387.12806,191.95931 L 390.79168,189.83205 L 390.20077,189.35932 L 390.20077,188.8866 C 392.64318,187.54734 393.98257,186.36553 394.21894,185.34116 L 392.80076,183.8048 L 392.80076,181.67754 L 393.74621,180.14118 L 393.74621,179.19573 C 393.43106,178.17164 392.44622,177.65952 390.79168,177.65938 L 388.66442,178.1321 L 387.12806,173.52303 L 383.58262,173.52303 C 383.58263,172.49894 383.07051,171.98682 382.04626,171.98668 L 381.57354,171.51395 L 381.57354,170.45032 L 382.51899,168.91396 C 379.84023,165.99898 378.50084,164.10808 378.50083,163.24126 L 378.97355,162.76854 L 379.44628,162.76854 L 382.51899,163.83217 L 383.1099,160.75945 L 383.58262,160.75945 L 384.64625,161.82309 L 384.05535,164.30489 L 386.65533,168.91396 L 389.25532,168.91396 C 390.0432,168.91411 390.55532,168.04745 390.79168,166.31397 C 389.76744,165.28989 388.54624,164.77777 387.12806,164.77762 L 386.18261,162.29581 L 387.12806,161.23218 L 389.25532,161.23218 C 390.27956,162.7293 392.44622,164.6202 395.75529,166.90488 L 395.28257,167.37761 L 395.28257,167.85033 L 397.29165,167.85033 L 396.81892,164.30489 L 398.35528,163.24126 L 397.88256,161.23218 C 397.88255,158.23841 399.22194,155.87479 401.90072,154.1413 C 401.90071,151.38391 403.27949,150.00513 406.03706,150.00496 M 388.19169,153.5504 L 389.25532,153.5504 L 390.79168,155.08675 L 389.72805,156.15038 L 389.25532,156.15038 L 388.19169,155.08675 L 388.19169,153.5504 M 529.77286,153.5504 L 530.83649,154.61403 L 529.30013,155.67766 L 528.70923,155.08675 L 528.70923,154.61403 L 529.77286,153.5504 M 407.57342,154.61403 L 408.63705,155.67766 L 408.04615,156.15038 L 407.57342,156.15038 L 406.50979,155.08675 L 407.10069,154.61403 L 407.57342,154.61403 M 564.51815,154.61403 L 565.58178,155.67766 C 565.58161,156.30812 562.35132,157.48993 555.89092,159.2231 L 555.89092,158.15947 L 564.51815,154.61403 M 372.3554,158.75037 C 374.24632,158.75053 375.78267,159.77477 376.96447,161.82309 L 376.49175,162.29581 C 373.02511,161.50809 371.29179,160.64143 371.29177,159.69582 L 372.3554,158.75037 M 372.3554,165.36852 L 373.89176,166.90488 L 373.41903,167.37761 L 373.41903,167.85033 L 371.29177,166.31397 L 372.3554,165.36852 M 365.73725,168.44124 L 366.20997,168.44124 C 372.04027,173.56257 374.9554,176.43831 374.95539,177.06847 L 373.41903,178.60483 L 373.41903,177.65938 L 373.89176,177.06847 L 373.89176,176.59574 L 364.20089,170.45032 L 365.73725,168.44124 M 549.27277,168.44124 L 549.27277,168.91396 L 548.20914,169.97759 L 547.73641,169.38669 L 547.73641,168.91396 L 548.20914,168.44124 L 549.27277,168.44124 M 423.88244,170.45032 L 424.47334,170.92304 L 424.47334,171.51395 L 423.88244,171.98668 L 422.93699,171.98668 L 422.93699,171.51395 L 423.88244,170.45032 M 381.57354,175.53211 L 382.51899,175.53211 L 383.1099,179.19573 L 382.51899,179.66846 L 381.57354,179.66846 L 380.50991,178.60483 L 381.57354,175.53211 M 353.91912,176.12302 L 354.98275,176.12302 C 355.92824,176.28074 357.97671,178.13224 361.12818,181.67754 L 358.05547,181.67754 C 358.0555,180.65344 357.54338,180.14132 356.51911,180.14118 L 352.85549,177.06847 L 353.91912,176.12302 M 385.11898,178.1321 L 386.65533,179.66846 L 386.18261,180.14118 L 385.11898,180.14118 L 384.05535,179.19573 L 385.11898,178.1321 M 528.2365,190.89568 L 529.30013,191.95931 L 528.70923,192.43204 L 527.17287,192.43204 L 527.17287,191.95931 L 528.2365,190.89568 M 523.15471,195.03202 L 524.21834,195.03202 L 525.16379,195.97747 C 520.20004,199.75939 516.45764,201.65029 513.93657,201.65017 C 517.56067,199.52303 520.63338,197.31698 523.15471,195.03202 M 372.82813,198.10474 L 373.89176,199.05019 C 371.76451,199.05031 368.6918,200.78363 364.67362,204.25016 L 363.60999,202.71381 C 363.61001,202.00483 366.68272,200.46848 372.82813,198.10474 M 355.9282,202.71381 L 357.46456,204.25016 L 355.9282,205.78652 L 354.39185,204.25016 L 355.9282,202.71381 M 532.84557,215.47738 L 533.9092,216.42283 L 533.9092,217.01374 L 532.84557,217.01374 L 531.78194,215.95011 L 532.37284,215.47738 L 532.84557,215.47738 M 534.85465,219.49555 L 535.44556,219.49555 C 537.02116,219.49565 538.36055,220.51988 539.46372,222.56826 C 543.24537,223.11987 545.13627,223.98653 545.13642,225.16825 L 545.13642,225.64097 L 543.60007,227.17733 L 543.12734,227.17733 C 540.29084,225.91682 537.88782,224.38047 535.91828,222.56826 L 536.39101,220.55918 C 535.36663,220.55928 534.85451,220.20473 534.85465,219.49555 M 541.00008,229.77732 L 541.59098,229.77732 L 542.53643,230.84095 L 541.59098,231.7864 L 541.00008,231.7864 L 540.05463,230.84095 L 541.00008,229.77732 M 427.54606,244.54998 L 428.01878,244.54998 L 429.08241,245.61361 L 428.49151,246.08633 L 428.01878,246.08633 L 427.54606,245.61361 L 427.54606,244.54998 M 415.72793,245.61361 L 417.85519,247.14997 L 416.31883,248.68632 L 414.19157,248.68632 L 412.18249,246.67724 L 415.72793,245.61361 M 515.47292,306.47696 C 520.90913,306.47698 523.6273,307.85576 523.62743,310.61331 L 524.21834,310.0224 L 524.69106,310.0224 L 524.69106,311.08603 L 521.14562,311.55876 C 520.20004,308.87999 518.30915,307.54061 515.47292,307.5406 L 515.47292,306.47696 M 363.60999,306.94969 C 363.61001,307.81636 362.27063,308.68302 359.59182,309.54968 C 360.45852,307.81636 361.7979,306.9497 363.60999,306.94969 M 512.87293,306.94969 L 514.40929,306.94969 L 514.40929,308.01332 L 512.87293,308.01332 L 512.87293,306.94969 M 355.9282,311.08603 L 356.99184,311.08603 L 355.9282,312.14967 L 354.98275,312.14967 L 355.9282,311.08603 M 527.17287,311.08603 C 531.26968,311.3224 533.31815,311.9921 533.31829,313.09512 L 533.31829,314.63147 L 532.37284,315.6951 C 530.08787,313.33148 528.35454,312.14967 527.17287,312.14967 L 527.17287,311.08603"
       id="text2473" />
    <text
       xml:space="preserve"
       style="font-size:72px;font-style:normal;font-variant:normal;font-weight:normal;font-stretch:normal;fill:#ffffff;fill-opacity:1;stroke:#800000;stroke-width:2;stroke-linecap:round;stroke-linejoin:round;stroke-opacity:1;font-family:Bitwise;-inkscape-font-specification:Bitwise;stroke-miterlimit:4;stroke-dasharray:none"
       x="73.698227"
       y="267.85922"
       id="text2477"><tspan
         sodipodi:role="line"
         x="73.698227"
         y="267.85922"
         id="tspan2479"
         style="font-size:72px;font-style:normal;font-variant:normal;font-weight:normal;font-stretch:normal;font-family:Black Wolf;-inkscape-font-specification:Black Wolf;fill:#ffffff;stroke:#800000;stroke-opacity:1;stroke-width:2;stroke-miterlimit:4;stroke-dasharray:none;stroke-linejoin:round;stroke-linecap:round">samurai</tspan></text>
  </g>
</svg>
