<?xml version="1.0" encoding="UTF-8" standalone="no"?>
<!-- Created with Inkscape (http://www.inkscape.org/) -->
<svg
   xmlns:dc="http://purl.org/dc/elements/1.1/"
   xmlns:cc="http://creativecommons.org/ns#"
   xmlns:rdf="http://www.w3.org/1999/02/22-rdf-syntax-ns#"
   xmlns:svg="http://www.w3.org/2000/svg"
   xmlns="http://www.w3.org/2000/svg"
   xmlns:sodipodi="http://sodipodi.sourceforge.net/DTD/sodipodi-0.dtd"
   xmlns:inkscape="http://www.inkscape.org/namespaces/inkscape"
   width="640px"
   height="480px"
   id="svg2451"
   sodipodi:version="0.32"
   inkscape:version="0.46"
   inkscape:export-filename="/home/dunk/samurai2.png"
   inkscape:export-xdpi="90"
   inkscape:export-ydpi="90"
   sodipodi:docname="samuraix-no-fonts.svg"
   inkscape:output_extension="org.inkscape.output.svg.inkscape">
  <defs
     id="defs2453">
    <inkscape:perspective
       sodipodi:type="inkscape:persp3d"
       inkscape:vp_x="0 : 240 : 1"
       inkscape:vp_y="0 : 1000 : 0"
       inkscape:vp_z="640 : 240 : 1"
       inkscape:persp3d-origin="320 : 160 : 1"
       id="perspective2459" />
    <filter
       id="filter2412"
       inkscape:label="filter1">
      <feGaussianBlur
         stdDeviation="1"
         id="feGaussianBlur2414" />
    </filter>
  </defs>
  <sodipodi:namedview
     id="base"
     pagecolor="#ffffff"
     bordercolor="#666666"
     borderopacity="1.0"
     inkscape:pageopacity="1"
     inkscape:pageshadow="2"
     inkscape:zoom="1.4142136"
     inkscape:cx="359.79816"
     inkscape:cy="223.62574"
     inkscape:current-layer="layer1"
     inkscape:document-units="px"
     showgrid="false"
     inkscape:window-width="1278"
     inkscape:window-height="783"
     inkscape:window-x="0"
     inkscape:window-y="15" />
  <metadata
     id="metadata2456">
    <rdf:RDF>
      <cc:Work
         rdf:about="">
        <dc:format>image/svg+xml</dc:format>
        <dc:type
           rdf:resource="http://purl.org/dc/dcmitype/StillImage" />
      </cc:Work>
    </rdf:RDF>
  </metadata>
  <g
     id="layer1"
     inkscape:label="Layer 1"
     inkscape:groupmode="layer">
    <text
       xml:space="preserve"
       style="font-size:242.0352478px;font-style:normal;font-variant:normal;font-weight:normal;font-stretch:normal;fill:#800000;fill-opacity:1;stroke:none;stroke-width:1px;stroke-linecap:butt;stroke-linejoin:miter;stroke-opacity:1;font-family:Shoguns Clan;-inkscape-font-specification:Shoguns Clan"
       x="391.2644"
       y="318.17691"
       id="text2473"><tspan
         sodipodi:role="line"
         id="tspan2475"
         x="391.2644"
         y="318.17691">x</tspan></text>
    <path
       style="font-size:72px;font-style:normal;font-variant:normal;font-weight:normal;font-stretch:normal;fill:#ffffff;fill-opacity:1;stroke:#800000;stroke-width:2;stroke-linecap:round;stroke-linejoin:round;stroke-miterlimit:4;stroke-opacity:1;font-family:Bitwise;-inkscape-font-specification:Bitwise"
       d="M 116.89823,262.09922 C 116.89818,263.68323 116.32218,265.05123 115.17023,266.20322 C 114.06619,267.30722 112.72219,267.85922 111.13823,267.85922 L 80.178227,267.85922 C 78.594222,267.85922 77.226223,267.30722 76.074227,266.20322 C 74.970226,265.05123 74.418226,263.68323 74.418227,262.09922 L 74.418227,259.21922 C 74.418226,258.40323 74.682226,257.73123 75.210227,257.20322 C 75.786225,256.62723 76.482224,256.33923 77.298227,256.33922 L 88.818227,256.33922 C 90.25821,256.33923 91.218209,257.29923 91.698227,259.21922 C 92.178208,261.13923 93.138207,262.09923 94.578227,262.09922 L 102.49823,262.09922 C 103.3142,262.09923 103.9862,261.83523 104.51423,261.30722 C 105.0902,260.73123 105.3782,260.03523 105.37823,259.21922 L 105.37823,253.45922 C 105.3782,252.64324 105.0902,251.97124 104.51423,251.44322 C 103.9862,250.86724 103.3142,250.57924 102.49823,250.57922 L 80.178227,250.57922 C 78.594222,250.57924 77.226223,250.02724 76.074227,248.92322 C 74.970226,247.77124 74.418226,246.40324 74.418227,244.81922 L 74.418227,233.29922 C 74.418226,231.71526 74.970226,230.37126 76.074227,229.26722 C 77.226223,228.11526 78.594222,227.53926 80.178227,227.53922 L 111.13823,227.53922 C 112.72219,227.53926 114.06619,228.11526 115.17023,229.26722 C 116.32218,230.37126 116.89818,231.71526 116.89823,233.29922 L 116.89823,236.17922 C 116.89818,236.99525 116.61018,237.69125 116.03423,238.26722 C 115.50619,238.79525 114.83419,239.05925 114.01823,239.05922 L 108.25823,239.05922 C 106.81819,239.05925 105.85819,238.09925 105.37823,236.17922 C 104.8982,234.25926 103.9382,233.29926 102.49823,233.29922 L 94.578227,233.29922 C 93.762207,233.29926 93.066208,233.58726 92.490227,234.16322 C 91.962209,234.69126 91.698209,235.36325 91.698227,236.17922 L 91.698227,241.93922 C 91.698209,242.75525 91.962209,243.45125 92.490227,244.02722 C 93.066208,244.55525 93.762207,244.81925 94.578227,244.81922 L 111.13823,244.81922 C 112.72219,244.81925 114.06619,245.39524 115.17023,246.54722 C 116.32218,247.65124 116.89818,248.99524 116.89823,250.57922 L 116.89823,262.09922 M 163.72635,264.97922 C 163.72631,265.79522 163.43831,266.49122 162.86235,267.06722 C 162.33431,267.59522 161.66231,267.85922 160.84635,267.85922 L 124.12635,267.85922 C 123.31035,267.85922 122.61435,267.59522 122.03835,267.06722 C 121.51035,266.49122 121.24635,265.79522 121.24635,264.97922 L 121.24635,250.57922 C 121.24635,249.76324 121.51035,249.09124 122.03835,248.56322 C 122.61435,247.98724 123.31035,247.69924 124.12635,247.69922 L 149.32635,247.69922 C 150.14232,247.69924 150.81432,247.43524 151.34235,246.90722 C 151.91832,246.33124 152.20632,245.63524 152.20635,244.81922 L 152.20635,236.17922 C 152.20632,235.36325 151.91832,234.69126 151.34235,234.16322 C 150.81432,233.58726 150.14232,233.29926 149.32635,233.29922 L 141.40635,233.29922 C 140.59033,233.29926 139.89433,233.58726 139.31835,234.16322 C 138.79033,234.69126 138.52633,235.36325 138.52635,236.17922 L 138.52635,239.05922 C 138.52633,239.87525 138.23833,240.57125 137.66235,241.14722 C 137.13434,241.67525 136.46234,241.93925 135.64635,241.93922 L 124.12635,241.93922 C 123.31035,241.93925 122.61435,241.67525 122.03835,241.14722 C 121.51035,240.57125 121.24635,239.87525 121.24635,239.05922 L 121.24635,230.41922 C 121.24635,229.60326 121.51035,228.93126 122.03835,228.40322 C 122.61435,227.82726 123.31035,227.53926 124.12635,227.53922 L 157.96635,227.53922 C 159.55031,227.53926 160.89431,228.11526 161.99835,229.26722 C 163.15031,230.37126 163.72631,231.71526 163.72635,233.29922 L 163.72635,264.97922 M 152.20635,259.21922 L 152.20635,256.33922 C 152.20632,255.52323 151.91832,254.85124 151.34235,254.32322 C 150.81432,253.74724 150.14232,253.45924 149.32635,253.45922 L 141.40635,253.45922 C 140.59033,253.45924 139.89433,253.74724 139.31835,254.32322 C 138.79033,254.85124 138.52633,255.52323 138.52635,256.33922 L 138.52635,259.21922 C 138.52633,260.03523 138.79033,260.73123 139.31835,261.30722 C 139.89433,261.83523 140.59033,262.09923 141.40635,262.09922 L 149.32635,262.09922 C 150.14232,262.09923 150.81432,261.83523 151.34235,261.30722 C 151.91832,260.73123 152.20632,260.03523 152.20635,259.21922 M 225.67448,264.97922 C 225.67442,265.79522 225.38642,266.49122 224.81048,267.06722 C 224.28242,267.59522 223.61042,267.85922 222.79448,267.85922 L 217.03448,267.85922 C 216.21843,267.85922 215.52243,267.59522 214.94648,267.06722 C 214.41843,266.49122 214.15443,265.79522 214.15448,264.97922 L 214.15448,236.17922 C 214.15443,235.36325 213.86643,234.69126 213.29048,234.16322 C 212.76243,233.58726 212.09043,233.29926 211.27448,233.29922 L 208.39448,233.29922 C 207.57844,233.29926 206.88244,233.58726 206.30648,234.16322 C 205.77844,234.69126 205.51444,235.36325 205.51448,236.17922 L 205.51448,264.97922 C 205.51444,265.79522 205.22644,266.49122 204.65048,267.06722 C 204.12244,267.59522 203.45044,267.85922 202.63448,267.85922 L 196.87448,267.85922 C 196.05845,267.85922 195.36245,267.59522 194.78648,267.06722 C 194.25845,266.49122 193.99445,265.79522 193.99448,264.97922 L 193.99448,236.17922 C 193.99445,235.36325 193.70645,234.69126 193.13048,234.16322 C 192.60245,233.58726 191.93045,233.29926 191.11448,233.29922 L 188.23448,233.29922 C 187.41846,233.29926 186.72246,233.58726 186.14648,234.16322 C 185.61846,234.69126 185.35446,235.36325 185.35448,236.17922 L 185.35448,264.97922 C 185.35446,265.79522 185.06646,266.49122 184.49048,267.06722 C 183.96246,267.59522 183.29046,267.85922 182.47448,267.85922 L 170.95448,267.85922 C 170.13847,267.85922 169.44247,267.59522 168.86648,267.06722 C 168.33848,266.49122 168.07448,265.79522 168.07448,264.97922 L 168.07448,230.41922 C 168.07448,229.60326 168.33848,228.93126 168.86648,228.40322 C 169.44247,227.82726 170.13847,227.53926 170.95448,227.53922 L 219.91448,227.53922 C 221.49842,227.53926 222.84242,228.11526 223.94648,229.26722 C 225.09842,230.37126 225.67442,231.71526 225.67448,233.29922 L 225.67448,264.97922 M 272.42948,262.09922 C 272.42943,263.68323 271.85343,265.05123 270.70148,266.20322 C 269.59744,267.30722 268.25344,267.85922 266.66948,267.85922 L 232.82948,267.85922 C 232.01347,267.85922 231.31747,267.59522 230.74148,267.06722 C 230.21348,266.49122 229.94948,265.79522 229.94948,264.97922 L 229.94948,230.41922 C 229.94948,229.60326 230.21348,228.93126 230.74148,228.40322 C 231.31747,227.82726 232.01347,227.53926 232.82948,227.53922 L 244.34948,227.53922 C 245.16546,227.53926 245.83746,227.82726 246.36548,228.40322 C 246.94146,228.93126 247.22946,229.60326 247.22948,230.41922 L 247.22948,259.21922 C 247.22946,260.03523 247.49346,260.73123 248.02148,261.30722 C 248.59746,261.83523 249.29346,262.09923 250.10948,262.09922 L 258.02948,262.09922 C 258.84545,262.09923 259.51745,261.83523 260.04548,261.30722 C 260.62145,260.73123 260.90945,260.03523 260.90948,259.21922 L 260.90948,230.41922 C 260.90945,229.60326 261.17344,228.93126 261.70148,228.40322 C 262.27744,227.82726 262.97344,227.53926 263.78948,227.53922 L 269.54948,227.53922 C 270.36544,227.53926 271.03744,227.82726 271.56548,228.40322 C 272.14143,228.93126 272.42943,229.60326 272.42948,230.41922 L 272.42948,262.09922 M 319.2576,236.17922 C 319.25756,236.99525 318.96956,237.69125 318.3936,238.26722 C 317.86556,238.79525 317.19356,239.05925 316.3776,239.05922 L 310.6176,239.05922 C 309.17757,239.05925 308.21757,238.09925 307.7376,236.17922 C 307.25757,234.25926 306.29757,233.29926 304.8576,233.29922 L 296.9376,233.29922 C 296.12158,233.29926 295.42558,233.58726 294.8496,234.16322 C 294.32158,234.69126 294.05758,235.36325 294.0576,236.17922 L 294.0576,264.97922 C 294.05758,265.79522 293.76958,266.49122 293.1936,267.06722 C 292.66559,267.59522 291.99359,267.85922 291.1776,267.85922 L 279.6576,267.85922 C 278.8416,267.85922 278.1456,267.59522 277.5696,267.06722 C 277.0416,266.49122 276.7776,265.79522 276.7776,264.97922 L 276.7776,230.41922 C 276.7776,229.60326 277.0416,228.93126 277.5696,228.40322 C 278.1456,227.82726 278.8416,227.53926 279.6576,227.53922 L 313.4976,227.53922 C 315.08156,227.53926 316.42556,228.11526 317.5296,229.26722 C 318.68156,230.37126 319.25756,231.71526 319.2576,233.29922 L 319.2576,236.17922 M 366.08573,264.97922 C 366.08568,265.79522 365.79768,266.49122 365.22173,267.06722 C 364.69369,267.59522 364.02169,267.85922 363.20573,267.85922 L 326.48573,267.85922 C 325.66972,267.85922 324.97372,267.59522 324.39773,267.06722 C 323.86973,266.49122 323.60573,265.79522 323.60573,264.97922 L 323.60573,250.57922 C 323.60573,249.76324 323.86973,249.09124 324.39773,248.56322 C 324.97372,247.98724 325.66972,247.69924 326.48573,247.69922 L 351.68573,247.69922 C 352.5017,247.69924 353.1737,247.43524 353.70173,246.90722 C 354.2777,246.33124 354.5657,245.63524 354.56573,244.81922 L 354.56573,236.17922 C 354.5657,235.36325 354.2777,234.69126 353.70173,234.16322 C 353.1737,233.58726 352.5017,233.29926 351.68573,233.29922 L 343.76573,233.29922 C 342.94971,233.29926 342.25371,233.58726 341.67773,234.16322 C 341.14971,234.69126 340.88571,235.36325 340.88573,236.17922 L 340.88573,239.05922 C 340.88571,239.87525 340.59771,240.57125 340.02173,241.14722 C 339.49371,241.67525 338.82171,241.93925 338.00573,241.93922 L 326.48573,241.93922 C 325.66972,241.93925 324.97372,241.67525 324.39773,241.14722 C 323.86973,240.57125 323.60573,239.87525 323.60573,239.05922 L 323.60573,230.41922 C 323.60573,229.60326 323.86973,228.93126 324.39773,228.40322 C 324.97372,227.82726 325.66972,227.53926 326.48573,227.53922 L 360.32573,227.53922 C 361.90969,227.53926 363.25369,228.11526 364.35773,229.26722 C 365.50968,230.37126 366.08568,231.71526 366.08573,233.29922 L 366.08573,264.97922 M 354.56573,259.21922 L 354.56573,256.33922 C 354.5657,255.52323 354.2777,254.85124 353.70173,254.32322 C 353.1737,253.74724 352.5017,253.45924 351.68573,253.45922 L 343.76573,253.45922 C 342.94971,253.45924 342.25371,253.74724 341.67773,254.32322 C 341.14971,254.85124 340.88571,255.52323 340.88573,256.33922 L 340.88573,259.21922 C 340.88571,260.03523 341.14971,260.73123 341.67773,261.30722 C 342.25371,261.83523 342.94971,262.09923 343.76573,262.09922 L 351.68573,262.09922 C 352.5017,262.09923 353.1737,261.83523 353.70173,261.30722 C 354.2777,260.73123 354.5657,260.03523 354.56573,259.21922 M 387.71385,221.77922 C 387.71383,222.59527 387.42583,223.29127 386.84985,223.86722 C 386.32184,224.39527 385.64984,224.65927 384.83385,224.65922 L 373.31385,224.65922 C 372.49785,224.65927 371.80185,224.39527 371.22585,223.86722 C 370.69785,223.29127 370.43385,222.59527 370.43385,221.77922 L 370.43385,218.89922 C 370.43385,218.08327 370.69785,217.41127 371.22585,216.88322 C 371.80185,216.30727 372.49785,216.01927 373.31385,216.01922 L 384.83385,216.01922 C 385.64984,216.01927 386.32184,216.30727 386.84985,216.88322 C 387.42583,217.41127 387.71383,218.08327 387.71385,218.89922 L 387.71385,221.77922 M 387.71385,264.97922 C 387.71383,265.79522 387.42583,266.49122 386.84985,267.06722 C 386.32184,267.59522 385.64984,267.85922 384.83385,267.85922 L 373.31385,267.85922 C 372.49785,267.85922 371.80185,267.59522 371.22585,267.06722 C 370.69785,266.49122 370.43385,265.79522 370.43385,264.97922 L 370.43385,230.41922 C 370.43385,229.60326 370.69785,228.93126 371.22585,228.40322 C 371.80185,227.82726 372.49785,227.53926 373.31385,227.53922 L 384.83385,227.53922 C 385.64984,227.53926 386.32184,227.82726 386.84985,228.40322 C 387.42583,228.93126 387.71383,229.60326 387.71385,230.41922 L 387.71385,264.97922"
       id="text2477" />
  </g>
</svg>
