<?xml version="1.0" encoding="UTF-8" standalone="no"?>
<!-- Created with Inkscape (http://www.inkscape.org/) -->
<svg
   xmlns:dc="http://purl.org/dc/elements/1.1/"
   xmlns:cc="http://creativecommons.org/ns#"
   xmlns:rdf="http://www.w3.org/1999/02/22-rdf-syntax-ns#"
   xmlns:svg="http://www.w3.org/2000/svg"
   xmlns="http://www.w3.org/2000/svg"
   xmlns:sodipodi="http://sodipodi.sourceforge.net/DTD/sodipodi-0.dtd"
   xmlns:inkscape="http://www.inkscape.org/namespaces/inkscape"
   width="640px"
   height="480px"
   id="svg2451"
   sodipodi:version="0.32"
   inkscape:version="0.46"
   inkscape:export-filename="/home/dunk/samurai2.png"
   inkscape:export-xdpi="90"
   inkscape:export-ydpi="90"
   sodipodi:docname="samuraix.svg"
   inkscape:output_extension="org.inkscape.output.svg.inkscape">
  <defs
     id="defs2453">
    <inkscape:perspective
       sodipodi:type="inkscape:persp3d"
       inkscape:vp_x="0 : 240 : 1"
       inkscape:vp_y="0 : 1000 : 0"
       inkscape:vp_z="640 : 240 : 1"
       inkscape:persp3d-origin="320 : 160 : 1"
       id="perspective2459" />
    <filter
       id="filter2412"
       inkscape:label="filter1">
      <feGaussianBlur
         stdDeviation="1"
         id="feGaussianBlur2414" />
    </filter>
  </defs>
  <sodipodi:namedview
     id="base"
     pagecolor="#ffffff"
     bordercolor="#666666"
     borderopacity="1.0"
     inkscape:pageopacity="1"
     inkscape:pageshadow="2"
     inkscape:zoom="1"
     inkscape:cx="288.79816"
     inkscape:cy="230.62574"
     inkscape:current-layer="layer1"
     inkscape:document-units="px"
     showgrid="false"
     inkscape:window-width="638"
     inkscape:window-height="779"
     inkscape:window-x="0"
     inkscape:window-y="19" />
  <metadata
     id="metadata2456">
    <rdf:RDF>
      <cc:Work
         rdf:about="">
        <dc:format>image/svg+xml</dc:format>
        <dc:type
           rdf:resource="http://purl.org/dc/dcmitype/StillImage" />
      </cc:Work>
    </rdf:RDF>
  </metadata>
  <g
     id="layer1"
     inkscape:label="Layer 1"
     inkscape:groupmode="layer">
    <path
       style="font-size:72px;font-style:normal;font-variant:normal;font-weight:normal;font-stretch:normal;fill:#ffffff;fill-opacity:1;stroke:#800000;stroke-width:2;stroke-linecap:round;stroke-linejoin:round;stroke-miterlimit:4;stroke-opacity:1;font-family:Bitwise;-inkscape-font-specification:Bitwise"
       d="M 116.89823,262.09922 C 116.89818,263.68323 116.32218,265.05123 115.17023,266.20322 C 114.06619,267.30722 112.72219,267.85922 111.13823,267.85922 L 80.178227,267.85922 C 78.594222,267.85922 77.226223,267.30722 76.074227,266.20322 C 74.970226,265.05123 74.418226,263.68323 74.418227,262.09922 L 74.418227,259.21922 C 74.418226,258.40323 74.682226,257.73123 75.210227,257.20322 C 75.786225,256.62723 76.482224,256.33923 77.298227,256.33922 L 88.818227,256.33922 C 90.25821,256.33923 91.218209,257.29923 91.698227,259.21922 C 92.178208,261.13923 93.138207,262.09923 94.578227,262.09922 L 102.49823,262.09922 C 103.3142,262.09923 103.9862,261.83523 104.51423,261.30722 C 105.0902,260.73123 105.3782,260.03523 105.37823,259.21922 L 105.37823,253.45922 C 105.3782,252.64324 105.0902,251.97124 104.51423,251.44322 C 103.9862,250.86724 103.3142,250.57924 102.49823,250.57922 L 80.178227,250.57922 C 78.594222,250.57924 77.226223,250.02724 76.074227,248.92322 C 74.970226,247.77124 74.418226,246.40324 74.418227,244.81922 L 74.418227,233.29922 C 74.418226,231.71526 74.970226,230.37126 76.074227,229.26722 C 77.226223,228.11526 78.594222,227.53926 80.178227,227.53922 L 111.13823,227.53922 C 112.72219,227.53926 114.06619,228.11526 115.17023,229.26722 C 116.32218,230.37126 116.89818,231.71526 116.89823,233.29922 L 116.89823,236.17922 C 116.89818,236.99525 116.61018,237.69125 116.03423,238.26722 C 115.50619,238.79525 114.83419,239.05925 114.01823,239.05922 L 108.25823,239.05922 C 106.81819,239.05925 105.85819,238.09925 105.37823,236.17922 C 104.8982,234.25926 103.9382,233.29926 102.49823,233.29922 L 94.578227,233.29922 C 93.762207,233.29926 93.066208,233.58726 92.490227,234.16322 C 91.962209,234.69126 91.698209,235.36325 91.698227,236.17922 L 91.698227,241.93922 C 91.698209,242.75525 91.962209,243.45125 92.490227,244.02722 C 93.066208,244.55525 93.762207,244.81925 94.578227,244.81922 L 111.13823,244.81922 C 112.72219,244.81925 114.06619,245.39524 115.17023,246.54722 C 116.32218,247.65124 116.89818,248.99524 116.89823,250.57922 L 116.89823,262.09922 M 163.72635,264.97922 C 163.72631,265.79522 163.43831,266.49122 162.86235,267.06722 C 162.33431,267.59522 161.66231,267.85922 160.84635,267.85922 L 124.12635,267.85922 C 123.31035,267.85922 122.61435,267.59522 122.03835,267.06722 C 121.51035,266.49122 121.24635,265.79522 121.24635,264.97922 L 121.24635,250.57922 C 121.24635,249.76324 121.51035,249.09124 122.03835,248.56322 C 122.61435,247.98724 123.31035,247.69924 124.12635,247.69922 L 149.32635,247.69922 C 150.14232,247.69924 150.81432,247.43524 151.34235,246.90722 C 151.91832,246.33124 152.20632,245.63524 152.20635,244.81922 L 152.20635,236.17922 C 152.20632,235.36325 151.91832,234.69126 151.34235,234.16322 C 150.81432,233.58726 150.14232,233.29926 149.32635,233.29922 L 141.40635,233.29922 C 140.59033,233.29926 139.89433,233.58726 139.31835,234.16322 C 138.79033,234.69126 138.52633,235.36325 138.52635,236.17922 L 138.52635,239.05922 C 138.52633,239.87525 138.23833,240.57125 137.66235,241.14722 C 137.13434,241.67525 136.46234,241.93925 135.64635,241.93922 L 124.12635,241.93922 C 123.31035,241.93925 122.61435,241.67525 122.03835,241.14722 C 121.51035,240.57125 121.24635,239.87525 121.24635,239.05922 L 121.24635,230.41922 C 121.24635,229.60326 121.51035,228.93126 122.03835,228.40322 C 122.61435,227.82726 123.31035,227.53926 124.12635,227.53922 L 157.96635,227.53922 C 159.55031,227.53926 160.89431,228.11526 161.99835,229.26722 C 163.15031,230.37126 163.72631,231.71526 163.72635,233.29922 L 163.72635,264.97922 M 152.20635,259.21922 L 152.20635,256.33922 C 152.20632,255.52323 151.91832,254.85124 151.34235,254.32322 C 150.81432,253.74724 150.14232,253.45924 149.32635,253.45922 L 141.40635,253.45922 C 140.59033,253.45924 139.89433,253.74724 139.31835,254.32322 C 138.79033,254.85124 138.52633,255.52323 138.52635,256.33922 L 138.52635,259.21922 C 138.52633,260.03523 138.79033,260.73123 139.31835,261.30722 C 139.89433,261.83523 140.59033,262.09923 141.40635,262.09922 L 149.32635,262.09922 C 150.14232,262.09923 150.81432,261.83523 151.34235,261.30722 C 151.91832,260.73123 152.20632,260.03523 152.20635,259.21922 M 225.67448,264.97922 C 225.67442,265.79522 225.38642,266.49122 224.81048,267.06722 C 224.28242,267.59522 223.61042,267.85922 222.79448,267.85922 L 217.03448,267.85922 C 216.21843,267.85922 215.52243,267.59522 214.94648,267.06722 C 214.41843,266.49122 214.15443,265.79522 214.15448,264.97922 L 214.15448,236.17922 C 214.15443,235.36325 213.86643,234.69126 213.29048,234.16322 C 212.76243,233.58726 212.09043,233.29926 211.27448,233.29922 L 208.39448,233.29922 C 207.57844,233.29926 206.88244,233.58726 206.30648,234.16322 C 205.77844,234.69126 205.51444,235.36325 205.51448,236.17922 L 205.51448,264.97922 C 205.51444,265.79522 205.22644,266.49122 204.65048,267.06722 C 204.12244,267.59522 203.45044,267.85922 202.63448,267.85922 L 196.87448,267.85922 C 196.05845,267.85922 195.36245,267.59522 194.78648,267.06722 C 194.25845,266.49122 193.99445,265.79522 193.99448,264.97922 L 193.99448,236.17922 C 193.99445,235.36325 193.70645,234.69126 193.13048,234.16322 C 192.60245,233.58726 191.93045,233.29926 191.11448,233.29922 L 188.23448,233.29922 C 187.41846,233.29926 186.72246,233.58726 186.14648,234.16322 C 185.61846,234.69126 185.35446,235.36325 185.35448,236.17922 L 185.35448,264.97922 C 185.35446,265.79522 185.06646,266.49122 184.49048,267.06722 C 183.96246,267.59522 183.29046,267.85922 182.47448,267.85922 L 170.95448,267.85922 C 170.13847,267.85922 169.44247,267.59522 168.86648,267.06722 C 168.33848,266.49122 168.07448,265.79522 168.07448,264.97922 L 168.07448,230.41922 C 168.07448,229.60326 168.33848,228.93126 168.86648,228.40322 C 169.44247,227.82726 170.13847,227.53926 170.95448,227.53922 L 219.91448,227.53922 C 221.49842,227.53926 222.84242,228.11526 223.94648,229.26722 C 225.09842,230.37126 225.67442,231.71526 225.67448,233.29922 L 225.67448,264.97922 M 272.42948,262.09922 C 272.42943,263.68323 271.85343,265.05123 270.70148,266.20322 C 269.59744,267.30722 268.25344,267.85922 266.66948,267.85922 L 232.82948,267.85922 C 232.01347,267.85922 231.31747,267.59522 230.74148,267.06722 C 230.21348,266.49122 229.94948,265.79522 229.94948,264.97922 L 229.94948,230.41922 C 229.94948,229.60326 230.21348,228.93126 230.74148,228.40322 C 231.31747,227.82726 232.01347,227.53926 232.82948,227.53922 L 244.34948,227.53922 C 245.16546,227.53926 245.83746,227.82726 246.36548,228.40322 C 246.94146,228.93126 247.22946,229.60326 247.22948,230.41922 L 247.22948,259.21922 C 247.22946,260.03523 247.49346,260.73123 248.02148,261.30722 C 248.59746,261.83523 249.29346,262.09923 250.10948,262.09922 L 258.02948,262.09922 C 258.84545,262.09923 259.51745,261.83523 260.04548,261.30722 C 260.62145,260.73123 260.90945,260.03523 260.90948,259.21922 L 260.90948,230.41922 C 260.90945,229.60326 261.17344,228.93126 261.70148,228.40322 C 262.27744,227.82726 262.97344,227.53926 263.78948,227.53922 L 269.54948,227.53922 C 270.36544,227.53926 271.03744,227.82726 271.56548,228.40322 C 272.14143,228.93126 272.42943,229.60326 272.42948,230.41922 L 272.42948,262.09922 M 319.2576,236.17922 C 319.25756,236.99525 318.96956,237.69125 318.3936,238.26722 C 317.86556,238.79525 317.19356,239.05925 316.3776,239.05922 L 310.6176,239.05922 C 309.17757,239.05925 308.21757,238.09925 307.7376,236.17922 C 307.25757,234.25926 306.29757,233.29926 304.8576,233.29922 L 296.9376,233.29922 C 296.12158,233.29926 295.42558,233.58726 294.8496,234.16322 C 294.32158,234.69126 294.05758,235.36325 294.0576,236.17922 L 294.0576,264.97922 C 294.05758,265.79522 293.76958,266.49122 293.1936,267.06722 C 292.66559,267.59522 291.99359,267.85922 291.1776,267.85922 L 279.6576,267.85922 C 278.8416,267.85922 278.1456,267.59522 277.5696,267.06722 C 277.0416,266.49122 276.7776,265.79522 276.7776,264.97922 L 276.7776,230.41922 C 276.7776,229.60326 277.0416,228.93126 277.5696,228.40322 C 278.1456,227.82726 278.8416,227.53926 279.6576,227.53922 L 313.4976,227.53922 C 315.08156,227.53926 316.42556,228.11526 317.5296,229.26722 C 318.68156,230.37126 319.25756,231.71526 319.2576,233.29922 L 319.2576,236.17922 M 366.08573,264.97922 C 366.08568,265.79522 365.79768,266.49122 365.22173,267.06722 C 364.69369,267.59522 364.02169,267.85922 363.20573,267.85922 L 326.48573,267.85922 C 325.66972,267.85922 324.97372,267.59522 324.39773,267.06722 C 323.86973,266.49122 323.60573,265.79522 323.60573,264.97922 L 323.60573,250.57922 C 323.60573,249.76324 323.86973,249.09124 324.39773,248.56322 C 324.97372,247.98724 325.66972,247.69924 326.48573,247.69922 L 351.68573,247.69922 C 352.5017,247.69924 353.1737,247.43524 353.70173,246.90722 C 354.2777,246.33124 354.5657,245.63524 354.56573,244.81922 L 354.56573,236.17922 C 354.5657,235.36325 354.2777,234.69126 353.70173,234.16322 C 353.1737,233.58726 352.5017,233.29926 351.68573,233.29922 L 343.76573,233.29922 C 342.94971,233.29926 342.25371,233.58726 341.67773,234.16322 C 341.14971,234.69126 340.88571,235.36325 340.88573,236.17922 L 340.88573,239.05922 C 340.88571,239.87525 340.59771,240.57125 340.02173,241.14722 C 339.49371,241.67525 338.82171,241.93925 338.00573,241.93922 L 326.48573,241.93922 C 325.66972,241.93925 324.97372,241.67525 324.39773,241.14722 C 323.86973,240.57125 323.60573,239.87525 323.60573,239.05922 L 323.60573,230.41922 C 323.60573,229.60326 323.86973,228.93126 324.39773,228.40322 C 324.97372,227.82726 325.66972,227.53926 326.48573,227.53922 L 360.32573,227.53922 C 361.90969,227.53926 363.25369,228.11526 364.35773,229.26722 C 365.50968,230.37126 366.08568,231.71526 366.08573,233.29922 L 366.08573,264.97922 M 354.56573,259.21922 L 354.56573,256.33922 C 354.5657,255.52323 354.2777,254.85124 353.70173,254.32322 C 353.1737,253.74724 352.5017,253.45924 351.68573,253.45922 L 343.76573,253.45922 C 342.94971,253.45924 342.25371,253.74724 341.67773,254.32322 C 341.14971,254.85124 340.88571,255.52323 340.88573,256.33922 L 340.88573,259.21922 C 340.88571,260.03523 341.14971,260.73123 341.67773,261.30722 C 342.25371,261.83523 342.94971,262.09923 343.76573,262.09922 L 351.68573,262.09922 C 352.5017,262.09923 353.1737,261.83523 353.70173,261.30722 C 354.2777,260.73123 354.5657,260.03523 354.56573,259.21922 M 387.71385,221.77922 C 387.71383,222.59527 387.42583,223.29127 386.84985,223.86722 C 386.32184,224.39527 385.64984,224.65927 384.83385,224.65922 L 373.31385,224.65922 C 372.49785,224.65927 371.80185,224.39527 371.22585,223.86722 C 370.69785,223.29127 370.43385,222.59527 370.43385,221.77922 L 370.43385,218.89922 C 370.43385,218.08327 370.69785,217.41127 371.22585,216.88322 C 371.80185,216.30727 372.49785,216.01927 373.31385,216.01922 L 384.83385,216.01922 C 385.64984,216.01927 386.32184,216.30727 386.84985,216.88322 C 387.42583,217.41127 387.71383,218.08327 387.71385,218.89922 L 387.71385,221.77922 M 387.71385,264.97922 C 387.71383,265.79522 387.42583,266.49122 386.84985,267.06722 C 386.32184,267.59522 385.64984,267.85922 384.83385,267.85922 L 373.31385,267.85922 C 372.49785,267.85922 371.80185,267.59522 371.22585,267.06722 C 370.69785,266.49122 370.43385,265.79522 370.43385,264.97922 L 370.43385,230.41922 C 370.43385,229.60326 370.69785,228.93126 371.22585,228.40322 C 371.80185,227.82726 372.49785,227.53926 373.31385,227.53922 L 384.83385,227.53922 C 385.64984,227.53926 386.32184,227.82726 386.84985,228.40322 C 387.42583,228.93126 387.71383,229.60326 387.71385,230.41922 L 387.71385,264.97922"
       id="text2477" />
    <path
       style="font-size:242.0352478px;font-style:normal;font-variant:normal;font-weight:normal;font-stretch:normal;fill:#800000;fill-opacity:1;stroke:none;stroke-width:1px;stroke-linecap:butt;stroke-linejoin:miter;stroke-opacity:1;font-family:Shoguns Clan;-inkscape-font-specification:Shoguns Clan"
       d="M 432.60078,148.88155 L 433.66441,148.88155 L 434.60987,149.94518 C 434.60985,150.41807 433.94016,150.93019 432.60078,151.48154 L 431.06443,150.89063 C 429.56745,153.64836 428.18867,155.02714 426.92808,155.02697 L 425.98263,157.62696 C 426.69171,159.59681 428.38564,161.80286 431.06443,164.24511 L 436.73713,160.69968 L 437.68258,161.64513 L 431.53715,165.19056 L 431.53715,166.2542 C 435.31894,167.51495 437.20983,169.72099 437.20985,172.87235 C 438.15528,172.87249 439.02194,174.60581 439.80984,178.07232 C 444.37949,179.96336 447.25523,181.81487 448.43707,183.62684 L 448.43707,188.23591 C 456.31579,190.75724 460.25516,194.69661 460.2552,200.05404 C 460.25516,201.23597 461.94909,202.41778 465.337,203.59948 L 465.80972,204.0722 L 465.80972,205.13583 C 465.25816,206.47533 464.07635,207.14503 462.26428,207.14492 L 462.26428,207.73582 L 469.94607,212.81762 L 471.95515,211.28126 L 473.4915,211.28126 C 475.14598,213.88135 478.57324,215.92983 483.77327,217.42669 C 485.1126,220.02677 486.45198,221.7207 487.79144,222.50848 L 488.38234,222.50848 C 491.06105,221.7207 493.2671,218.64799 495.0005,213.29034 C 496.81253,208.5632 499.17615,206.19958 502.09137,206.19947 C 502.09129,204.93898 504.13976,202.8905 508.2368,200.05404 L 514.38222,200.05404 L 514.38222,196.39042 C 513.35789,195.20873 512.84577,194.02692 512.84587,192.84498 C 512.84577,190.95421 514.89425,188.90573 518.99129,186.69956 L 525.13672,178.07232 C 525.13661,176.02399 530.2578,172.43916 540.50029,167.31783 L 549.2457,162.11785 C 553.57888,162.43316 556.10008,162.94527 556.8093,163.65421 L 558.34566,161.64513 L 558.93656,162.11785 L 559.40929,161.64513 L 560.47292,161.64513 L 560.47292,162.11785 C 560.47278,162.82709 559.76369,163.18164 558.34566,163.18148 L 557.87293,163.65421 L 557.87293,164.71784 L 563.54563,165.78147 L 564.49108,164.71784 L 565.08199,164.71784 L 566.61835,165.78147 L 567.5638,165.78147 C 568.35152,165.70283 570.4,163.81194 573.70922,160.10877 C 576.30905,160.10893 578.04238,159.59681 578.9092,158.57241 L 579.38192,159.16332 L 579.38192,159.63604 C 579.38176,160.34529 578.5151,160.69983 576.78194,160.69968 C 576.78178,161.64528 574.57573,162.98467 570.16379,164.71784 L 554.80022,180.55413 L 551.25478,188.23591 C 545.8971,188.94513 540.61834,190.83603 535.41849,193.90861 C 535.41837,198.00568 535.06383,200.05416 534.35486,200.05404 L 534.82758,202.06312 L 540.02756,200.52676 L 540.50029,200.52676 C 540.02744,201.47233 537.46685,202.85111 532.8185,204.66311 L 532.34578,206.19947 L 533.88213,210.80854 L 534.35486,210.80854 L 535.41849,209.7449 L 534.82758,207.73582 C 539.23956,206.0814 542.82439,203.83595 545.58208,200.99949 L 546.17299,201.5904 L 546.17299,202.06312 C 543.88802,204.66322 540.81531,207.06624 536.95485,209.27218 L 536.95485,212.34489 L 537.9003,213.29034 L 538.4912,213.29034 C 541.32743,213.29045 543.3759,212.77833 544.63663,211.75399 L 545.58208,211.75399 C 547.00013,211.75409 548.89103,212.77833 551.25478,214.8267 L 556.33658,217.42669 L 556.8093,216.83578 L 557.40021,216.83578 L 558.34566,218.37214 L 557.40021,219.43577 C 554.091,219.43587 551.68798,218.41163 550.19115,216.36306 C 547.82739,216.36316 546.64558,215.69346 546.64571,214.35397 L 542.50937,214.8267 C 539.59411,214.8268 536.87594,214.15711 534.35486,212.81762 C 534.35474,214.15711 533.48808,214.8268 531.75487,214.8267 L 531.28215,212.81762 L 528.68216,212.81762 L 531.28215,218.96304 C 530.49416,218.96314 529.98204,218.09648 529.74579,216.36306 L 529.27307,216.83578 L 528.68216,216.83578 C 527.65781,215.65407 527.14569,214.31468 527.1458,212.81762 L 525.13672,212.81762 L 525.13672,214.8267 L 524.664,214.8267 L 523.12764,213.76307 L 522.65491,215.29942 L 519.5822,213.29034 L 518.99129,213.29034 C 517.49423,213.76317 513.9094,217.19042 508.2368,223.57211 L 495.47322,226.64483 L 493.93686,227.11755 L 493.93686,227.59028 C 496.69435,229.2449 498.07313,230.97823 498.07321,232.79025 C 499.41252,232.79034 500.08221,233.10549 500.08229,233.7357 L 499.60957,239.4084 C 505.36097,242.32362 508.23671,244.17512 508.2368,244.96292 L 512.84587,250.1629 L 512.84587,252.64471 C 514.5791,252.64477 515.44576,254.89021 515.44586,259.38104 C 520.25179,261.74472 522.65481,266.82651 522.65491,274.62642 L 524.664,280.29912 C 524.66389,281.00825 524.15177,281.36279 523.12764,281.36276 C 524.46692,283.56884 526.16085,285.42034 528.20943,286.91728 C 528.20932,289.83244 530.76991,295.46574 535.89122,303.8172 L 536.95485,305.82628 L 536.95485,306.41719 L 535.89122,306.41719 C 536.91533,307.44143 537.42745,309.64748 537.42757,313.03534 C 538.3729,313.03534 540.93349,315.75351 545.10936,321.18984 C 546.60619,321.18984 548.81224,323.39589 551.72751,327.808 L 551.72751,328.87163 L 550.78206,328.87163 C 550.07284,328.87162 549.71829,328.16253 549.71843,326.74436 L 543.10027,323.67165 C 538.29412,318.55046 533.33051,314.13837 528.20943,310.43535 C 528.20932,307.75658 525.8457,305.19599 521.11856,302.75357 C 521.11845,301.80813 518.36089,299.75966 512.84587,296.60814 C 512.0579,295.89907 511.23063,293.53545 510.36406,289.51726 L 510.83679,287.98091 C 508.07913,285.85368 503.82461,283.96278 498.07321,282.30821 C 498.07313,281.75673 495.86708,280.57492 491.45506,278.76277 C 490.7459,277.18706 488.18531,273.7598 483.77327,268.481 C 482.5914,265.88106 480.7005,263.51744 478.10057,261.39012 C 474.71265,255.00839 471.48237,250.5569 468.40971,248.03564 C 463.28848,255.20536 458.00972,258.79019 452.57342,258.79013 C 452.57338,260.6023 450.17037,262.4932 445.36436,264.46283 C 445.36433,268.1659 442.80374,271.39618 437.68258,274.1537 L 438.27348,276.16278 C 437.56438,278.21129 436.1856,279.23553 434.13714,279.23549 L 432.60078,279.23549 C 432.60077,280.33855 431.06441,281.20522 427.99171,281.83548 C 427.9917,283.56884 426.80989,284.4355 424.44628,284.43547 C 420.58568,289.4779 416.48874,291.9991 412.15542,291.99907 C 411.99785,292.70818 409.12211,294.44151 403.52819,297.19905 L 391.71006,305.35355 L 391.23734,305.35355 L 391.23734,304.88083 C 394.07371,301.57177 399.51005,297.6324 407.54635,293.0627 C 408.96454,292.27485 411.36755,289.91123 414.75541,285.97183 C 417.59176,285.97186 420.97962,283.56884 424.919,278.76277 C 426.02202,278.76281 427.4008,277.06888 429.05535,273.68097 C 434.49167,268.71741 440.28254,264.975 446.42799,262.45375 C 446.42796,258.98716 448.27947,255.71748 451.98251,252.64471 L 459.6643,246.02656 C 460.37334,244.45088 461.08243,243.58422 461.79156,243.42657 C 461.79151,242.08725 457.85214,238.69939 449.97343,233.26298 C 445.87645,230.26914 443.82798,227.86612 443.828,226.05392 C 443.35525,226.05401 442.68556,224.71462 441.81892,222.03576 C 438.0371,221.56313 434.2947,217.62376 430.5917,210.21763 C 426.7311,207.14503 423.97354,205.60867 422.31901,205.60856 L 421.84629,205.60856 L 421.84629,206.19947 L 423.85537,209.27218 L 423.85537,210.80854 C 422.83113,210.80864 422.31901,211.63591 422.31901,213.29034 L 423.38264,214.35397 L 423.38264,215.89033 L 422.31901,216.83578 L 421.37356,216.83578 C 420.27053,216.83588 419.60084,215.14195 419.36448,211.75399 C 420.23114,211.6753 420.90083,210.84804 421.37356,209.27218 C 420.58568,209.27229 419.91599,207.53896 419.36448,204.0722 L 417.82812,205.13583 C 417.11904,205.13595 416.76449,204.62383 416.76449,203.59948 L 416.29177,203.59948 L 415.81904,204.0722 L 415.22814,204.0722 C 415.22814,204.70262 416.25238,205.56928 418.30085,206.67219 L 418.30085,207.14492 L 417.3554,208.20855 C 413.88875,206.47533 412.15543,204.58443 412.15542,202.53585 L 412.74633,202.06312 C 408.64939,201.74809 406.60091,200.36931 406.6009,197.92678 L 406.01,197.92678 L 404.59182,198.99041 L 403.52819,198.99041 L 402.46456,197.92678 L 402.46456,197.45405 C 404.04032,197.45417 406.0888,195.91782 408.60998,192.84498 C 407.58576,191.82087 401.12519,188.59058 389.22826,183.15412 L 389.22826,182.68139 C 389.22828,181.89365 390.05555,181.38153 391.71006,181.14504 C 400.37671,187.2118 405.49789,190.24512 407.07363,190.24499 L 407.54635,189.77227 L 407.54635,189.29954 L 406.6009,189.29954 L 406.6009,188.23591 L 407.07363,187.76319 L 407.07363,187.29046 C 402.34639,185.87242 399.98277,184.84818 399.98275,184.21775 L 400.45548,183.62684 L 409.08271,186.22683 L 409.08271,185.1632 L 401.51911,178.54505 L 402.46456,178.54505 L 413.21905,185.75411 L 414.28269,184.69047 L 415.81904,184.69047 L 415.81904,185.75411 C 414.55845,185.75424 413.69178,186.73908 413.21905,188.70864 L 412.15542,188.70864 L 412.15542,189.77227 L 413.21905,190.8359 L 413.69178,190.8359 L 417.3554,188.70864 L 416.76449,188.23591 L 416.76449,187.76319 C 419.2069,186.42393 420.54629,185.24212 420.78266,184.21775 L 419.36448,182.68139 L 419.36448,180.55413 L 420.30993,179.01777 L 420.30993,178.07232 C 419.99478,177.04823 419.00994,176.53611 417.3554,176.53597 L 415.22814,177.00869 L 413.69178,172.39962 L 410.14634,172.39962 C 410.14635,171.37553 409.63423,170.86341 408.60998,170.86327 L 408.13726,170.39054 L 408.13726,169.32691 L 409.08271,167.79055 C 406.40395,164.87557 405.06456,162.98467 405.06455,162.11785 L 405.53727,161.64513 L 406.01,161.64513 L 409.08271,162.70876 L 409.67362,159.63604 L 410.14634,159.63604 L 411.20997,160.69968 L 410.61907,163.18148 L 413.21905,167.79055 L 415.81904,167.79055 C 416.60692,167.7907 417.11904,166.92404 417.3554,165.19056 C 416.33116,164.16648 415.10996,163.65436 413.69178,163.65421 L 412.74633,161.1724 L 413.69178,160.10877 L 415.81904,160.10877 C 416.84328,161.60589 419.00994,163.49679 422.31901,165.78147 L 421.84629,166.2542 L 421.84629,166.72692 L 423.85537,166.72692 L 423.38264,163.18148 L 424.919,162.11785 L 424.44628,160.10877 C 424.44627,157.115 425.78566,154.75138 428.46444,153.01789 C 428.46443,150.2605 429.84321,148.88172 432.60078,148.88155 M 414.75541,152.42699 L 415.81904,152.42699 L 417.3554,153.96334 L 416.29177,155.02697 L 415.81904,155.02697 L 414.75541,153.96334 L 414.75541,152.42699 M 556.33658,152.42699 L 557.40021,153.49062 L 555.86385,154.55425 L 555.27295,153.96334 L 555.27295,153.49062 L 556.33658,152.42699 M 434.13714,153.49062 L 435.20077,154.55425 L 434.60987,155.02697 L 434.13714,155.02697 L 433.07351,153.96334 L 433.66441,153.49062 L 434.13714,153.49062 M 591.08187,153.49062 L 592.1455,154.55425 C 592.14533,155.18471 588.91504,156.36652 582.45464,158.09969 L 582.45464,157.03606 L 591.08187,153.49062 M 398.91912,157.62696 C 400.81004,157.62712 402.34639,158.65136 403.52819,160.69968 L 403.05547,161.1724 C 399.58883,160.38468 397.85551,159.51802 397.85549,158.57241 L 398.91912,157.62696 M 398.91912,164.24511 L 400.45548,165.78147 L 399.98275,166.2542 L 399.98275,166.72692 L 397.85549,165.19056 L 398.91912,164.24511 M 392.30097,167.31783 L 392.77369,167.31783 C 398.60399,172.43916 401.51912,175.3149 401.51911,175.94506 L 399.98275,177.48142 L 399.98275,176.53597 L 400.45548,175.94506 L 400.45548,175.47233 L 390.76461,169.32691 L 392.30097,167.31783 M 575.83649,167.31783 L 575.83649,167.79055 L 574.77286,168.85418 L 574.30013,168.26328 L 574.30013,167.79055 L 574.77286,167.31783 L 575.83649,167.31783 M 450.44616,169.32691 L 451.03706,169.79963 L 451.03706,170.39054 L 450.44616,170.86327 L 449.50071,170.86327 L 449.50071,170.39054 L 450.44616,169.32691 M 408.13726,174.4087 L 409.08271,174.4087 L 409.67362,178.07232 L 409.08271,178.54505 L 408.13726,178.54505 L 407.07363,177.48142 L 408.13726,174.4087 M 380.48284,174.99961 L 381.54647,174.99961 C 382.49196,175.15733 384.54043,177.00883 387.6919,180.55413 L 384.61919,180.55413 C 384.61922,179.53003 384.1071,179.01791 383.08283,179.01777 L 379.41921,175.94506 L 380.48284,174.99961 M 411.6827,177.00869 L 413.21905,178.54505 L 412.74633,179.01777 L 411.6827,179.01777 L 410.61907,178.07232 L 411.6827,177.00869 M 554.80022,189.77227 L 555.86385,190.8359 L 555.27295,191.30863 L 553.73659,191.30863 L 553.73659,190.8359 L 554.80022,189.77227 M 549.71843,193.90861 L 550.78206,193.90861 L 551.72751,194.85406 C 546.76376,198.63598 543.02136,200.52688 540.50029,200.52676 C 544.12439,198.39962 547.1971,196.19357 549.71843,193.90861 M 399.39185,196.98133 L 400.45548,197.92678 C 398.32823,197.9269 395.25552,199.66022 391.23734,203.12675 L 390.17371,201.5904 C 390.17373,200.88142 393.24644,199.34507 399.39185,196.98133 M 382.49192,201.5904 L 384.02828,203.12675 L 382.49192,204.66311 L 380.95557,203.12675 L 382.49192,201.5904 M 559.40929,214.35397 L 560.47292,215.29942 L 560.47292,215.89033 L 559.40929,215.89033 L 558.34566,214.8267 L 558.93656,214.35397 L 559.40929,214.35397 M 561.41837,218.37214 L 562.00928,218.37214 C 563.58488,218.37224 564.92427,219.39647 566.02744,221.44485 C 569.80909,221.99646 571.69999,222.86312 571.70014,224.04484 L 571.70014,224.51756 L 570.16379,226.05392 L 569.69106,226.05392 C 566.85456,224.79341 564.45154,223.25706 562.482,221.44485 L 562.95473,219.43577 C 561.93035,219.43587 561.41823,219.08132 561.41837,218.37214 M 567.5638,228.65391 L 568.1547,228.65391 L 569.10015,229.71754 L 568.1547,230.66299 L 567.5638,230.66299 L 566.61835,229.71754 L 567.5638,228.65391 M 454.10978,243.42657 L 454.5825,243.42657 L 455.64613,244.4902 L 455.05523,244.96292 L 454.5825,244.96292 L 454.10978,244.4902 L 454.10978,243.42657 M 442.29165,244.4902 L 444.41891,246.02656 L 442.88255,247.56291 L 440.75529,247.56291 L 438.74621,245.55383 L 442.29165,244.4902 M 542.03664,305.35355 C 547.47285,305.35357 550.19102,306.73235 550.19115,309.4899 L 550.78206,308.89899 L 551.25478,308.89899 L 551.25478,309.96262 L 547.70934,310.43535 C 546.76376,307.75658 544.87287,306.4172 542.03664,306.41719 L 542.03664,305.35355 M 390.17371,305.82628 C 390.17373,306.69295 388.83435,307.55961 386.15554,308.42627 C 387.02224,306.69295 388.36162,305.82629 390.17371,305.82628 M 539.43665,305.82628 L 540.97301,305.82628 L 540.97301,306.88991 L 539.43665,306.88991 L 539.43665,305.82628 M 382.49192,309.96262 L 383.55556,309.96262 L 382.49192,311.02626 L 381.54647,311.02626 L 382.49192,309.96262 M 553.73659,309.96262 C 557.8334,310.19899 559.88187,310.86869 559.88201,311.97171 L 559.88201,313.50806 L 558.93656,314.57169 C 556.65159,312.20807 554.91826,311.02626 553.73659,311.02626 L 553.73659,309.96262"
       id="text2473" />
  </g>
</svg>
